<svg xmlns="http://www.w3.org/2000/svg" xmlns:xlink="http://www.w3.org/1999/xlink" viewBox="0 0 500 500" xmlns:v="https://vecta.io/nano"><style><![CDATA[.B{stroke-linejoin:round}.C{stroke:#263238}.D{fill:#ff81ae}.E{fill:#fff}.F{stroke-linecap:round}.G{fill:#263238}.H{fill:none}.I{opacity:.5}]]></style><defs><clipPath id="A"><path d="M163.24 235.29s.86 14.86.21 18.74 0 4.52-11.41.64-18.31-2.58-22.83 9.05 15.29 85.72 15.93 87.87-7.1 21.32-12.7 40.71-8.83 36.4-8.83 36.4h103.81s-3.66-27.14-9.48-43.73-12.49-38.55-12.49-38.55 12.92-62.89 10.55-77.53-9-16.59-16.8-16.59a50.23 50.23 0 0 0-15.29 2.8l.65-15.29s-19.17.43-21.32-4.52z" class="B C D"/></clipPath><clipPath id="B"><path d="M194.47,253s12.92-8.4,20.89-2.59,4.74,24.34,4.74,35.76,2.15,35.75.43,44.36-5,12.71-9.48,13.36-9.91-4.09-9.91-15.29-2.15-40.28-2.37-46.1-1.5-14.43-1.5-14.43" class="B C D F"/></clipPath><clipPath id="C"><path d="M151.18,256.61a16.56,16.56,0,0,0-12.5-4.52c-7.53.64-14,6.46-15.07,17s21.32,68.49,25.2,73.23,7.32,6.68,13.13,5.17,6-26.92,1.94-38.55-12.27-37.26-12.27-37.26" class="B C D F"/></clipPath><clipPath id="D"><path d="M121.24,129.32l14,56.22s4.95,3.87,24.33-7.54,8.84-18.74,8.84-18.74Z" class="B C E"/></clipPath><path id="E" d="M67.84,286.83s9.2,69.83,72.13,110,144,34.3,209.87,31.34,112.37-45.81,114.37-102.83-49.61-67.85-83.07-128.71-33.13-82.15-94.39-115-148.6,1.48-189,74.17S67.84,286.83,67.84,286.83Z"/><path id="F" d="M424.28 248.58c0 25.13-17 53.93-34.13 53.93S356 273.71 356 248.58s17-42.11 34.13-42.11 34.15 16.98 34.15 42.11z"/><path id="G" d="M454.43 309.17c-5.17 20.23-24.78 39.91-38.57 36.38s-21.54-30.2-16.37-50.43 22.35-30.39 36.14-26.87 23.98 20.69 18.8 40.92z"/><path id="H" d="M386.85 295.69c5.67 20.09-1.42 46.95-15.13 50.82s-33.78-15.33-39.45-35.42 4.09-37.51 17.79-41.37 31.12 5.87 36.79 25.97z"/><path id="I" d="M108.72 333.85c.06 0-.16-4.67-.21-5-.5-3.35-3.23-9.29-6.57-9.44-2.41-.11-4.36 2.36-4.45 5.06s1.72 5.18 3.45 6.62c2.06 1.73 7.78 2.76 7.78 2.76z"/><path id="J" d="M100.71 419.38a226.91 226.91 0 0 1 4.34 9.59h2.59c-1.26-2.86-3-6.61-5.17-10.89-.78-1.55-1.64-3.17-2.54-4.84a52.7 52.7 0 0 0 3.74-4.43c2.21 1.19 7.09 1.47 7.73 1.5l-.42 5.34c-.48 5.4-1 10-1.5 13.32h2.24a279.25 279.25 0 0 0 1.25-13.34l.34-5.94c.65-.16 5.92-1.43 8.06-3.13 1.94-1.54 4.1-4.08 4.38-6.84s-1.34-5.07-3.77-4.83c-3.38.34-6.93 6.44-7.9 9.84-.06.2-.48 2.43-.72 3.84 0-.84.08-1.66.11-2.53l.11-5.25v-2.67c0-.9-.09-1.83-.13-2.76-.14-2.14-.38-4.28-.65-6.44 1.3-.09 5.9-.49 8-1.7s4.52-3.38 5.16-6.09-.64-5.34-3-5.52c-3.33-.26-7.59 5.25-9 8.49a132.5 132.5 0 0 0-1.28 4l-.55-3.88c-.62-3.74-1.35-7.49-2.06-11.24l-.64-3.44c.46 0 5.94-.37 8.29-1.72 2.1-1.21 4.53-3.38 5.16-6.1s-.63-5.33-3-5.52c-3.33-.25-7.59 5.25-9 8.49-.1.25-1.23 3.74-1.48 4.64-.46-2.53-.9-5.05-1.24-7.58a89.09 89.09 0 0 1-.84-10.34c.21 0 5.92-.34 8.33-1.73 2.1-1.2 4.53-3.38 5.16-6.09s-.63-5.34-3-5.52c-3.33-.26-7.59 5.25-9 8.49-.09.21-.95 2.87-1.33 4.14h-.19a69.9 69.9 0 0 1 .81-10.61 93.46 93.46 0 0 1 1-5.59c1.06.06 5.91.3 8.17-.69s4.77-2.81 5.65-5.46-.11-5.45-2.45-5.94c-3.24-.68-8 4.31-9.63 7.39-.09.16-.87 2-1.42 3.28l.55-2.42c.7-2.9 1.5-5.53 2.21-7.85l1.2-3.61c1.13-.57 5.63-2.93 7.33-4.93s3.33-4.92 3.09-7.62-2.29-4.51-4.67-3.67c-3.31 1.16-5.71 7.88-6 11.36v5h.07l-1.21 3.45c-.76 2.31-1.61 4.94-2.36 7.84a94.85 94.85 0 0 0-2.07 9.46 70.48 70.48 0 0 0-1 10.71v.13c-.28-1.06-1.16-4-1.25-4.18-1.27-3-5.34-7.72-8.69-6.84-2.41.64-3.78 3.56-3.25 6.11s2.89 4.33 5 5.15c2.31.92 7.82.23 8.26.17a89 89 0 0 0 .66 10.75c.24 2.06.54 4.12.86 6.18l-.57-1.81c-1.27-3-5.34-7.71-8.69-6.83-2.41.63-3.77 3.55-3.25 6.11s2.89 4.33 5 5.14 6.78.35 8 .21l.39 2.36 1.83 11.27c.19 1.31.34 2.62.49 3.93l-.49-1.57c-1.28-3-5.35-7.72-8.7-6.84-2.41.64-3.77 3.56-3.25 6.11s2.9 4.33 5 5.15 6.32.39 7.8.23l.3 4c0 .9.1 1.76.08 2.68s0 1.79 0 2.68l-.21 5.15-.21 3.39c-.17-1.32-.57-3.87-.62-4.08a15.73 15.73 0 0 0-4.27-7 5.14 5.14 0 0 0-.32-.91 3.51 3.51 0 0 0-5.68-1.34c-2.85 2.42-3.08 9.45-2.32 12.71 0 .19.74 2.19 1.2 3.44l-1.11-2c-.76-1.37-1.56-2.71-2.42-4.15l-1.32-2.06c-.42-.69-1-1.36-1.44-2.05-1.15-1.57-2.38-3.09-3.66-4.59 1.11-.9 5-4.17 6.31-6.46s2.42-5.52 1.68-8-3.13-3.74-5.35-2.35c-3.09 1.94-4.25 8.95-3.93 12.36 0 .21.49 2.6.76 3.9l-2.35-2.65c-2.35-2.51-4.79-5-7.23-7.42l-2.21-2.26c.4-.32 5.11-4.1 6.56-6.66 1.28-2.28 2.41-5.53 1.67-8s-3.13-3.74-5.35-2.35c-3.09 1.94-4.24 8.95-3.93 12.36 0 .25.7 3.69.91 4.55-1.62-1.67-3.22-3.35-4.74-5.09a68.82 68.82 0 0 1-5.72-7.5c.19-.15 5.12-4.07 6.6-6.69 1.29-2.28 2.42-5.53 1.68-8.05s-3.13-3.73-5.35-2.34c-3.09 1.93-4.24 8.94-3.93 12.35 0 .23.53 2.85.8 4.08l-.17.11a53.8 53.8 0 0 1-4.37-8.76c-.69-1.69-1.26-3.36-1.78-5 1-.63 5.4-3.55 6.95-5.77s2.9-5.25 2.41-7.87-2.71-4.16-5-3c-3.22 1.55-5 8.45-5 11.91 0 .19.17 2.09.32 3.47l-.67-2.24c-.77-2.7-1.33-5.26-1.8-7.52-.26-1.3-.48-2.47-.66-3.58.72-1.16 3.61-5.88 4.16-8.52s.6-6-.9-7.91a3.63 3.63 0 0 0-5.93.14c-2.38 3-1.31 9.79.07 12.71.11.26 2.39 3.91 2.43 3.85v-.07l.57 3.46c.44 2.28.94 4.86 1.66 7.61a81.88 81.88 0 0 0 2.7 8.68 55.15 55.15 0 0 0 4.22 9l.07.1c-.76-.64-2.94-2.34-3.12-2.45-2.57-1.5-8.46-2.57-11 .26a5.06 5.06 0 0 0 0 6.84c1.72 1.68 4.65 1.51 6.88.82 2.5-.77 7.07-4.83 7.44-5.16a67.33 67.33 0 0 0 5.74 7.93c1.2 1.45 2.46 2.86 3.74 4.26l-1.38-1.05c-2.57-1.51-8.46-2.57-11 .26a5 5 0 0 0 0 6.83c1.72 1.69 4.65 1.52 6.87.83s6.21-4.07 7.25-5l1.47 1.59c2.39 2.52 4.78 5 7 7.58.81.9 1.56 1.82 2.32 2.74l-1.19-.91c-2.57-1.5-8.46-2.56-11 .27a5.06 5.06 0 0 0 0 6.83c1.73 1.68 4.66 1.51 6.88.83s5.82-3.75 7.06-4.83l2.19 2.93c.45.69.93 1.31 1.35 2l1.28 2.09 2.28 4.14 1.45 2.76c-.79-.9-2.37-2.63-2.51-2.76-2.31-2-7.9-4.07-10.76-1.68a5.23 5.23 0 0 0-.87 6.87c1.46 2 4.33 2.33 6.58 2 2.48-.33 7.28-3.45 7.88-3.84a93.07 93.07 0 0 0 2.01 4.22z"/><path id="K" d="M51.23 360.12c2.63 0 8.23-2.87 8.24-2.88s-2.39-3.52-2.57-3.72c-2.06-2.28-7.34-5.14-10.39-3.12a5.3 5.3 0 0 0-1.51 6.78c1.2 2.21 4 2.93 6.23 2.94z"/><path id="L" d="M289.73 281s-3.75-3-2.25-6.75a34.26 34.26 0 0 1 3.19-6.19l1.31 7.32c.75 3.38-2.25 5.62-2.25 5.62z"/><path id="M" d="M293.86 393.12a2.07 2.07 0 1 0-2.07 2.07 2.07 2.07 0 0 0 2.07-2.07z"/><path id="N" d="M163.24 235.29s.86 14.86.21 18.74 0 4.52-11.41.64-18.31-2.58-22.83 9.05 15.29 85.72 15.93 87.87-7.1 21.32-12.7 40.71-8.83 36.4-8.83 36.4h103.81s-3.66-27.14-9.48-43.73-12.49-38.55-12.49-38.55 12.92-62.89 10.55-77.53-9-16.59-16.8-16.59a50.23 50.23 0 0 0-15.29 2.8l.65-15.29s-19.17.43-21.32-4.52z"/><path id="O" d="M223.88 416.08a1.31 1.31 0 1 0 1.31 1.31 1.31 1.31 0 0 0-1.31-1.31z"/><path id="P" d="M221.88 411.24a1.31 1.31 0 1 0-1.85 0 1.33 1.33 0 0 0 1.85 0z"/><path id="Q" d="M196.74 281.9a1.3 1.3 0 1 0-1.85 0 1.3 1.3 0 0 0 1.85 0z"/><path id="R" d="M197 282.61a1.3 1.3 0 1 0 1.3 1.3 1.31 1.31 0 0 0-1.3-1.3z"/><path id="S" d="M196.74 285.92a1.3 1.3 0 1 0 0 1.84 1.31 1.31 0 0 0 0-1.84z"/><path id="T" d="M192.88 281.73a2.18 2.18 0 1 0 2.18 2.18 2.18 2.18 0 0 0-2.18-2.18z"/><path id="U" d="M192.88 281.07a1.31 1.31 0 1 0-1.3-1.3 1.31 1.31 0 0 0 1.3 1.3z"/><path id="V" d="M210.9 268.07a2.18 2.18 0 1 0-2.18-2.17 2.17 2.17 0 0 0 2.18 2.17z"/><path id="W" d="M208.89 263.89a1.31 1.31 0 1 0-1.85 0 1.31 1.31 0 0 0 1.85 0z"/><path id="X" d="M210.9 271.35a1.31 1.31 0 1 0-1.31-1.31 1.31 1.31 0 0 0 1.31 1.31z"/><path id="Y" d="M208.89,269.75a1.31,1.31,0,0,0,0-1.85,1.33,1.33,0,0,0-1.85,0,1.31,1.31,0,1,0,1.85,1.85Z"/><path id="Z" d="M214.75,267.9a1.3,1.3,0,1,0-1.84,1.85,1.3,1.3,0,0,0,1.84-1.85Z"/><path id="a" d="M197 314.94a1.31 1.31 0 1 0 1.3 1.3 1.31 1.31 0 0 0-1.3-1.3z"/><path id="b" d="M192.88 314.07a2.18 2.18 0 1 0 2.18 2.17 2.17 2.17 0 0 0-2.18-2.17z"/><path id="c" d="M206.75 299.53a1.3 1.3 0 1 0-1.3-1.3 1.31 1.31 0 0 0 1.3 1.3z"/><path id="d" d="M210.9 295.39a1.31 1.31 0 1 0-1.31-1.3 1.3 1.3 0 0 0 1.31 1.3z"/><path id="e" d="M207 296.22a1.3 1.3 0 1 0 0-1.84 1.31 1.31 0 0 0 0 1.84z"/><path id="f" d="M192.88,345.74a1.31,1.31,0,1,0,0-2.61,1.31,1.31,0,0,0,0,2.61Z"/><path id="g" d="M206.75,331.87a1.31,1.31,0,1,0,0-2.61,1.31,1.31,0,0,0,0,2.61Z"/><path id="h" d="M192.88 383.75a1.31 1.31 0 1 0 1.31 1.3 1.3 1.3 0 0 0-1.31-1.3z"/><path id="i" d="M207 360.89a1.31 1.31 0 1 0 0-1.85 1.31 1.31 0 0 0 0 1.85z"/><path id="j" d="M194.89 415.25a1.31 1.31 0 1 0 1.85 0 1.31 1.31 0 0 0-1.85 0z"/><path id="k" d="M194.89,409.39a1.31,1.31,0,0,0,0,1.85,1.33,1.33,0,0,0,1.85,0,1.31,1.31,0,0,0-1.85-1.85Z"/><path id="l" d="M214.75 393.22a1.3 1.3 0 1 0-1.84 0 1.3 1.3 0 0 0 1.84 0z"/><path id="m" d="M210.9 392.39a1.31 1.31 0 1 0-1.31-1.31 1.3 1.3 0 0 0 1.31 1.31z"/><path id="n" d="M210.9 393.05a2.18 2.18 0 1 0 2.17 2.18 2.18 2.18 0 0 0-2.17-2.18z"/><path id="o" d="M214.75 397.24a1.3 1.3 0 1 0 0 1.84 1.3 1.3 0 0 0 0-1.84z"/><path id="p" d="M210.9,422.11a1.31,1.31,0,1,0,0,2.61,1.31,1.31,0,0,0,0-2.61Z"/><path id="q" d="M215,426.26a1.3,1.3,0,0,0-.61,2.44h1.22a1.29,1.29,0,0,0-.61-2.44Z"/><path id="r" d="M207,423.71a1.31,1.31,0,0,0,0,1.85,1.33,1.33,0,0,0,1.85,0,1.31,1.31,0,0,0-1.85-1.85Z"/><path id="s" d="M212.91 423.71a1.3 1.3 0 1 0 1.84 0 1.31 1.31 0 0 0-1.84 0z"/><path id="t" d="M210.9 425.39a2.17 2.17 0 0 0-2.18 2.17 2.14 2.14 0 0 0 .33 1.14h3.7a2.22 2.22 0 0 0 .32-1.14 2.17 2.17 0 0 0-2.17-2.17z"/><path id="u" d="M183.75 263.89a1.3 1.3 0 1 0-1.84 0 1.31 1.31 0 0 0 1.84 0z"/><path id="v" d="M184 296.93a1.3 1.3 0 1 0 1.31 1.3 1.3 1.3 0 0 0-1.31-1.3z"/><path id="w" d="M184,329.26a1.31,1.31,0,0,0,0,2.61,1.31,1.31,0,1,0,0-2.61Z"/><path id="x" d="M179.9,327.72a1.31,1.31,0,0,0,0-2.61,1.31,1.31,0,1,0,0,2.61Z"/><path id="y" d="M179.9 328.39a2.18 2.18 0 1 0 2.17 2.17 2.17 2.17 0 0 0-2.17-2.17z"/><path id="z" d="M179.9 360.72a2.18 2.18 0 1 0 2.17 2.18 2.17 2.17 0 0 0-2.17-2.18z"/><path id="AA" d="M194.47,253s12.92-8.4,20.89-2.59,4.74,24.34,4.74,35.76,2.15,35.75.43,44.36-5,12.71-9.48,13.36-9.91-4.09-9.91-15.29-2.15-40.28-2.37-46.1-1.5-14.43-1.5-14.43"/><path id="AB" d="M151.18,256.61a16.56,16.56,0,0,0-12.5-4.52c-7.53.64-14,6.46-15.07,17s21.32,68.49,25.2,73.23,7.32,6.68,13.13,5.17,6-26.92,1.94-38.55-12.27-37.26-12.27-37.26"/></defs><use xlink:href="#E" class="D"/><use xlink:href="#E" opacity=".7" class="E"/><path d="M223.88 162.4h55.02v81.1h-55.02z" class="D"/><g class="E"><path d="M223.88 162.4h55.02v81.1h-55.02z" class="I"/><path d="M230.52 172.19h41.74v61.52h-41.74z"/></g><path d="M137.88 83.4h77.33v114h-77.33z" class="D"/><g class="E"><path d="M137.88 83.4h77.33v114h-77.33z" class="I"/><path d="M147.21 97.16h58.67v86.48h-58.67z"/></g><path d="M49.63,171.74c25.12,6.81,56.36,10,89.45.64,68.55-19.33,111.44-93.11,111.44-93.11" class="B C F H"/><path d="M123.34 175.25l-9.83 28.22-14.63-26.05 24.46-2.17z" class="D"/><path d="M85.6 177.16l-16.12 25.16-8.18-28.73 24.3 3.57zm70.31-11.63l-2.51 29.77-20.65-21.6 23.16-8.17z" class="G"/><path d="M186.97 148.09l3.34 29.7-24.46-17.16 21.12-12.54z" class="D"/><path d="M217.1 121.15l10.36 28.03-27.86-10.8 17.5-17.23z" class="G"/><path d="M241.68 90.49l14.67 26.03-29.22-6.24 14.55-19.79z" class="D"/><path d="M261.57,78.54S298.39,153.92,378.3,172c21.38,4.84,43.08,4,62.88.49" class="B C F H"/><path d="M363.09 167.02l-22.1 20.11-.43-29.88 22.53 9.77z" class="D"/><path d="M329.01 150.7l-26.16 14.41 6.52-29.15 19.64 14.74z" class="G"/><path d="M294.74 122.77L266 130.93l12.92-26.94 15.82 18.78z" class="D"/><path d="M396.36 174.02l-16.42 24.97-7.83-28.84 24.25 3.87z" class="G"/><g class="D"><path d="M431.97 173.52l-11.23 27.69-13.31-26.75 24.54-.94z"/><use xlink:href="#F"/></g><use xlink:href="#F" opacity=".3" class="E"/><use xlink:href="#G" class="D"/><use xlink:href="#G" class="E I"/><use xlink:href="#H" class="D"/><use xlink:href="#H" class="E I"/><g class="B C F H"><path d="M415.86 345.55l-25.71 83.29V302.51"/><path d="M371.72 346.51l18.43 82.33"/></g><g class="D"><use xlink:href="#I"/><use xlink:href="#J"/><use xlink:href="#K"/></g><g class="E I"><use xlink:href="#I"/><use xlink:href="#J"/><use xlink:href="#K"/></g><g class="B C E"><path d="M292.46 410.17s5.17 3.23 4.09 15.08H306s-1-9.91 4.55-15.25z"/><path d="M280.19 424.39h42.18v4.74h-42.18zM277.73 281s-3.93 22.31-.93 39.19h3.56a196.25 196.25 0 0 0-2.63-39.19z"/></g><path d="M277.73 281s-3.74-3-2.24-6.75a34.67 34.67 0 0 1 3.18-6.19l1.31 7.32c.75 3.38-2.25 5.62-2.25 5.62z" class="D"/><path d="M289.73,281s-3.93,22.31-.93,39.19h3.56A196.25,196.25,0,0,0,289.73,281Z" class="B C E"/><use xlink:href="#L" class="D"/><path d="M301.73,281s-3.93,22.31-.93,39.19h3.56A196.25,196.25,0,0,0,301.73,281Z" class="B C E"/><use xlink:href="#L" x="12" class="D"/><path d="M313.73,281s-3.93,22.31-.94,39.19h3.57A197.12,197.12,0,0,0,313.73,281Z" class="B C E"/><use xlink:href="#L" x="24" class="D"/><path d="M325.73,281s-3.94,22.31-.94,39.19h3.57A197.12,197.12,0,0,0,325.73,281Z" class="B C E"/><g class="D"><use xlink:href="#L" x="36"/><path d="M268.68 316.05H335a4.33 4.33 0 0 1 4.33 4.33v32.28a0 0 0 0 1 0 0h-75a0 0 0 0 1 0 0v-32.28a4.33 4.33 0 0 1 4.35-4.33z" class="B C"/></g><path d="M334 316.05h-64.38a5.26 5.26 0 0 0-5.26 5.27v14.76h1a6.87 6.87 0 0 0 6.87-6.86v-.14a4.63 4.63 0 0 1 9.26 0v6a3.77 3.77 0 0 0 7.54 0v-9.36a2.37 2.37 0 0 1 2.37-2.37h3.87a2.37 2.37 0 0 1 2.37 2.37 5 5 0 0 0 9.91 0v-1.08a2.37 2.37 0 1 1 4.74 0v5.92a4.85 4.85 0 1 0 9.69 0v-3.77h4.41a2.27 2.27 0 0 0 2.27-2.26 2.26 2.26 0 0 1 2.26-2.26 2.9 2.9 0 0 1 2.9 2.91v4.05a4.89 4.89 0 0 0 4.89 4.89h.61v-12.8a5.27 5.27 0 0 0-5.32-5.27z" class="B C G"/><g class="E B C"><circle cx="302.97" cy="340.09" r="2.9"/><path d="M287.65 321.45a2.9 2.9 0 1 0-2.9 2.9 2.9 2.9 0 0 0 2.9-2.9z"/><circle cx="332.39" cy="339.26" r="2.07"/><circle cx="314.87" cy="320.15" r="2.07"/><path d="M274.8,343a2.07,2.07,0,1,0-2.07,2.07A2.07,2.07,0,0,0,274.8,343Z"/><circle cx="333.22" cy="326.83" r="2.07"/><circle cx="281.43" cy="332.22" r="2.07"/></g><path d="M253.76 350.51h96.14a6.74 6.74 0 0 1 6.74 6.74v50.55a0 0 0 0 1 0 0H247a0 0 0 0 1 0 0v-50.54a6.74 6.74 0 0 1 6.76-6.75z" class="B C D"/><path d="M348.44 350.51h-93.22a8.21 8.21 0 0 0-8.2 8.21v26.69h2.6A5.38 5.38 0 0 0 255 380v-10.43a2.26 2.26 0 1 1 4.52 0V373a4.63 4.63 0 0 0 9.26 0v-5.71a5 5 0 0 1 5-4.95h0a5 5 0 0 1 5 4.95v13a4.85 4.85 0 1 0 9.69 0V367a.75.75 0 0 1 .75-.75h0a7 7 0 0 0 7-7 1.83 1.83 0 0 1 1.83-1.83h4.91a4.89 4.89 0 0 1 4.89 4.89V368a3.24 3.24 0 0 0 6.47 0v-1.14a4.89 4.89 0 0 1 4.89-4.89h.72a6.45 6.45 0 0 1 6.45 6.45v7.87a3.12 3.12 0 0 0 6.24 0v-6.57a5.17 5.17 0 0 1 10.34 0v14.18a2.8 2.8 0 0 0 5.6 0V375a6.61 6.61 0 0 1 6.6-6.6h1.58v-9.67a8.21 8.21 0 0 0-8.3-8.22z" class="B C G"/><g class="E B C"><path d="M262.79 391.46a2.9 2.9 0 1 0-2.9 2.9 2.9 2.9 0 0 0 2.9-2.9zm21.54-20.3a2.9 2.9 0 1 0-2.9 2.9 2.9 2.9 0 0 0 2.9-2.9z"/><circle cx="312.92" cy="387.32" r="2.9"/><circle cx="352.69" cy="366.19" r="2.9"/><use xlink:href="#M"/><use xlink:href="#M" x="-26.52" y="-24.03"/><circle cx="276.87" cy="388.15" r="2.07"/><path d="M308 370.75a2.08 2.08 0 1 0-2.07 2.07 2.07 2.07 0 0 0 2.07-2.07z"/><circle cx="322.45" cy="396.85" r="2.07"/><use xlink:href="#M" x="45.57" y="-0.41"/><use xlink:href="#M" x="0.83" y="-35.63"/><circle cx="330.32" cy="359.98" r="2.07"/><path d="M241.2 405.22h119.32v5.82H241.2z"/></g><path d="M143.85,209s.43,23.05-2.37,29.08a59.81,59.81,0,0,1-3.87,7.54,7.07,7.07,0,0,0-8.83-2.37c-5.82,2.37-13.79,9.47-11.2,22.4s20.89,22.61,44.79,25.41,41.14-19.38,42.65-29.51-5.39-42.64-7.32-59-20.25-25.41-34.46-24.77S143.85,209,143.85,209Z" class="B C G"/><use xlink:href="#N" class="D"/><g clip-path="url(#A)" class="E"><path d="M223.88 410.4a1.34 1.34 0 0 0 .46-.09l-.5-2.51a1.3 1.3 0 0 0 0 2.6z"/><use xlink:href="#O"/><path d="M225.21 415l-.7-3.79a2.17 2.17 0 1 0 .7 3.79z"/><circle cx="220.95" cy="416.17" r="1.3"/><circle cx="219.74" cy="413.24" r="1.3"/><use xlink:href="#P"/><path d="M198.07 252.33c-.67 0-1.34.06-2 .12a1.27 1.27 0 0 0 2-.12zm-3.26.24l-3.47.55a2.19 2.19 0 0 0 1.54.63 2.17 2.17 0 0 0 1.93-1.18zm-3.93 2.86a1.31 1.31 0 0 0 0-1.85 1.37 1.37 0 0 0-.44-.28l-1.43.32a1.301 1.301 0 0 0 1.87 1.81zm4.01 0a1.31 1.31 0 0 0 1.85-1.85 1.33 1.33 0 0 0-1.85 0 1.31 1.31 0 0 0 0 1.85zm-2.01 1.57a1.31 1.31 0 1 0 0-2.61 1.31 1.31 0 0 0 0 2.61z"/><circle cx="189.95" cy="286.84" r="1.3"/><use xlink:href="#Q"/><use xlink:href="#R"/><path d="M192.88 289.36a1.31 1.31 0 1 0-1.3-1.31 1.31 1.31 0 0 0 1.3 1.31z"/><use xlink:href="#S"/><use xlink:href="#T"/><circle cx="188.74" cy="283.91" r="1.3"/><use xlink:href="#U"/><path d="M190.88 281.9a1.3 1.3 0 1 0-1.85 0 1.3 1.3 0 0 0 1.85 0z"/><use xlink:href="#V"/><use xlink:href="#W"/><use xlink:href="#X"/><use xlink:href="#Y"/><use xlink:href="#Z"/><path d="M206.75 267.2a1.31 1.31 0 1 0-1.3-1.3 1.31 1.31 0 0 0 1.3 1.3zm8-3.31l.1-.15q-.33-1.07-.69-2a1.27 1.27 0 0 0-1.25.31 1.305 1.305 0 1 0 1.84 1.85zm-3.85-.83a1.31 1.31 0 1 0-1.31-1.31 1.31 1.31 0 0 0 1.31 1.31zm2.84 2.84a1.3 1.3 0 0 0 1.3 1.3 1.21 1.21 0 0 0 .62-.18l-.57-2.42H215a1.31 1.31 0 0 0-1.26 1.3zm-17 52.35a1.31 1.31 0 1 0 0 1.85 1.31 1.31 0 0 0 0-1.85zm-3.86 3.44a1.31 1.31 0 1 0-1.3-1.3 1.31 1.31 0 0 0 1.3 1.3z"/><circle cx="188.74" cy="316.24" r="1.3" transform="matrix(.005934 -.999982 .999982 .005934 -128.6 503.13)"/><path d="M196.74 314.24a1.31 1.31 0 1 0-1.85 0 1.33 1.33 0 0 0 1.85 0zm-5.86 5.86a1.31 1.31 0 1 0-1.85 0 1.31 1.31 0 0 0 1.85 0z"/><use xlink:href="#a"/><circle cx="189.95" cy="313.31" r="1.3"/><use xlink:href="#b"/><path d="M192.88 313.4a1.31 1.31 0 1 0-1.3-1.3 1.31 1.31 0 0 0 1.3 1.3zm21.61-19.19a1.26 1.26 0 0 0-1.58.17 1.3 1.3 0 0 0 0 1.84 1.28 1.28 0 0 0 1.27.32l.31-2.33zm-.63 4.56l.2-1.37a1.3 1.3 0 0 0-.32.83 1.42 1.42 0 0 0 .12.54zm-.95 3.31a1.32 1.32 0 0 0 .42.29l.37-2.49a1.28 1.28 0 0 0-.79.36 1.3 1.3 0 0 0 0 1.84zm-5.91-1.84a1.3 1.3 0 1 0 1.85 0 1.3 1.3 0 0 0-1.85 0zm3.9.17a2.18 2.18 0 1 0-2.18-2.18 2.18 2.18 0 0 0 2.18 2.18zm0 .66a1.31 1.31 0 1 0 1.3 1.3 1.31 1.31 0 0 0-1.3-1.3z"/><use xlink:href="#c"/><use xlink:href="#d"/><use xlink:href="#e"/><path d="M197 347.27a1.31 1.31 0 1 0 0 2.61 1.31 1.31 0 0 0 0-2.61zm-4.12 6.73a1.31 1.31 0 1 0 0-2.61 1.31 1.31 0 0 0 0 2.61zm3.86-7.43a1.31 1.31 0 1 0-1.85 0 1.31 1.31 0 0 0 1.85 0z"/><use xlink:href="#f"/><circle cx="189.95" cy="345.65" r="1.3"/><circle cx="189.95" cy="351.51" r="1.3"/><circle cx="188.74" cy="348.58" r="1.3" transform="matrix(.005934 -.999982 .999982 .005934 -160.94 535.27)"/><path d="M192.88 346.4a2.18 2.18 0 1 0 2.18 2.18 2.17 2.17 0 0 0-2.18-2.18zm3.86 4.18a1.33 1.33 0 0 0-1.85 0 1.31 1.31 0 1 0 1.85 0zM207 328.56a1.33 1.33 0 0 0 1.85 0h0l.25-1.41a1.22 1.22 0 0 0-.27-.41 1.31 1.31 0 1 0-1.85 1.85zm.74 6.19l.48-2.51a1.29 1.29 0 0 0-1.18.33 1.27 1.27 0 0 0 .7 2.18z"/><use xlink:href="#g"/><path d="M192.88 378.73a2.18 2.18 0 1 0 2.18 2.18 2.18 2.18 0 0 0-2.18-2.18zm3.86.17a1.3 1.3 0 1 0-1.85 0 1.3 1.3 0 0 0 1.85 0z"/><path d="M192.88 378.07a1.31 1.31 0 1 0-1.3-1.3 1.31 1.31 0 0 0 1.3 1.3zm-3.88.83a1.3 1.3 0 1 0 0-1.84 1.31 1.31 0 0 0 0 1.84z"/><circle cx="188.74" cy="380.91" r="1.3" transform="matrix(.005934 -.999982 .999982 .005934 -193.27 567.42)"/><circle cx="189.95" cy="383.84" r="1.3"/><path d="M196.74 382.92a1.3 1.3 0 1 0 0 1.84 1.31 1.31 0 0 0 0-1.84z"/><use xlink:href="#h"/><path d="M197 379.6a1.31 1.31 0 1 0 0 2.61 1.31 1.31 0 0 0 0-2.61zm13.9-11.25a1.3 1.3 0 0 0 1.2-.8l-.51-1.59a1.28 1.28 0 0 0-.69-.22 1.31 1.31 0 1 0 0 2.61zm0-3.28a1.72 1.72 0 0 0 .39 0l-1.31-4.1a2.17 2.17 0 0 0 .92 4.14zm-4.15-.87a1.31 1.31 0 1 0-1.3-1.3 1.31 1.31 0 0 0 1.3 1.3z"/><use xlink:href="#i"/><path d="M207 364.9a1.31 1.31 0 1 0 1.85 0 1.33 1.33 0 0 0-1.85 0z"/><use xlink:href="#j"/><path d="M192.88 416.08a1.31 1.31 0 1 0 1.31 1.31 1.31 1.31 0 0 0-1.31-1.31z"/><circle cx="189.95" cy="416.17" r="1.3"/><path d="M197 411.94a1.31 1.31 0 1 0 1.3 1.3 1.31 1.31 0 0 0-1.3-1.3z"/><use xlink:href="#k"/><path d="M189,409.39a1.31,1.31,0,0,0,0,1.85,1.33,1.33,0,0,0,1.85,0,1.31,1.31,0,0,0-1.85-1.85Z"/><circle cx="188.74" cy="413.24" r="1.3"/><path d="M192.88 407.79a1.31 1.31 0 1 0 1.31 1.31 1.31 1.31 0 0 0-1.31-1.31zm0 3.28a2.18 2.18 0 1 0 2.18 2.17 2.17 2.17 0 0 0-2.18-2.17z"/><use xlink:href="#l"/><use xlink:href="#m"/><path d="M215 393.92a1.31 1.31 0 1 0 1.31 1.31 1.31 1.31 0 0 0-1.31-1.31zm-8-.7a1.3 1.3 0 1 0 0-1.84 1.31 1.31 0 0 0 0 1.84z"/><use xlink:href="#n"/><use xlink:href="#o"/><path d="M208.89 397.24a1.3 1.3 0 1 0 0 1.84 1.31 1.31 0 0 0 0-1.84zm2.01.83a1.31 1.31 0 1 0 1.3 1.3 1.31 1.31 0 0 0-1.3-1.3zm-4.15-1.54a1.31 1.31 0 1 0-1.3-1.3 1.31 1.31 0 0 0 1.3 1.3z"/><use xlink:href="#p"/><use xlink:href="#q"/><use xlink:href="#r"/><use xlink:href="#s"/><use xlink:href="#t"/><path d="M206.75 426.26a1.3 1.3 0 0 0-.61 2.44h1.22a1.29 1.29 0 0 0-.61-2.44zm-41.01-170.83a1.31 1.31 0 0 0 0-1.85 1.33 1.33 0 0 0-1.85 0 1.31 1.31 0 0 0 1.85 1.85zm.26-5.16a1.31 1.31 0 1 0 0 2.61 1.31 1.31 0 0 0 0-2.61zm-2.32.08l-.11 2.58a2.14 2.14 0 0 0 .11-2.58zm.21-.78a1.31 1.31 0 1 0 0-1.85 1.27 1.27 0 0 0-.2.31v1.24a1.43 1.43 0 0 0 .2.3zm-.71 6.1a4.25 4.25 0 0 1-.24.78 1.31 1.31 0 0 0 .25-.73s-.01-.03-.01-.05zm-3.3 26.23a1.3 1.3 0 1 0-1.85 0 1.3 1.3 0 0 0 1.85 0zm5.86 4.02a1.3 1.3 0 1 0 0 1.84 1.31 1.31 0 0 0 0-1.84zm-3.86.17a2.18 2.18 0 1 0-2.17-2.18 2.18 2.18 0 0 0 2.17 2.18zm3.86-4.19a1.3 1.3 0 1 0-1.85 0 1.3 1.3 0 0 0 1.85 0zm-3.86-.83a1.31 1.31 0 1 0-1.3-1.3 1.31 1.31 0 0 0 1.3 1.3z"/><circle cx="158.95" cy="286.84" r="1.3"/><path d="M166 282.61a1.3 1.3 0 1 0 1.3 1.3 1.31 1.31 0 0 0-1.3-1.3z"/><circle cx="157.74" cy="283.91" r="1.3"/><path d="M161.88 289.36a1.31 1.31 0 1 0-1.3-1.31 1.31 1.31 0 0 0 1.3 1.31zm18.02-26.3a1.31 1.31 0 1 0-1.31-1.31 1.31 1.31 0 0 0 1.31 1.31z"/><use xlink:href="#u"/><path d="M175.75 267.2a1.31 1.31 0 1 0-1.3-1.3 1.31 1.31 0 0 0 1.3 1.3zm2.14-3.31a1.31 1.31 0 1 0-1.85 0 1.31 1.31 0 0 0 1.85 0zm2.01 7.46a1.31 1.31 0 1 0-1.31-1.31 1.31 1.31 0 0 0 1.31 1.31zm0-3.28a2.18 2.18 0 1 0-2.18-2.17 2.17 2.17 0 0 0 2.18 2.17zm4.1-3.48a1.31 1.31 0 1 0 1.31 1.31 1.31 1.31 0 0 0-1.31-1.31zm-6.11 5.16a1.31 1.31 0 0 0 0-1.85 1.33 1.33 0 0 0-1.85 0 1.31 1.31 0 1 0 1.85 1.85zm5.86-1.85a1.305 1.305 0 1 0-1.84 1.85 1.305 1.305 0 0 0 1.84-1.85zm-18.01 46.34a1.31 1.31 0 1 0-1.85 0 1.33 1.33 0 0 0 1.85 0zm0 4.01a1.31 1.31 0 1 0 0 1.85 1.31 1.31 0 0 0 0-1.85zm-5.86 1.85a1.31 1.31 0 1 0-1.85 0 1.31 1.31 0 0 0 1.85 0zm6.12-5.16a1.31 1.31 0 1 0 1.3 1.3 1.31 1.31 0 0 0-1.3-1.3zm-4.12 6.75a1.31 1.31 0 1 0-1.3-1.3 1.31 1.31 0 0 0 1.3 1.3z"/><circle cx="157.74" cy="316.24" r="1.3" transform="matrix(.004887 -.999988 .999988 .004887 -159.27 472.43)"/><path d="M161.88 313.4a1.31 1.31 0 1 0-1.3-1.3 1.31 1.31 0 0 0 1.3 1.3zm0 .67a2.18 2.18 0 1 0 2.18 2.17 2.17 2.17 0 0 0-2.18-2.17z"/><circle cx="158.95" cy="313.31" r="1.3"/><path d="M179.9 296.05a2.18 2.18 0 1 0 2.17 2.18 2.18 2.18 0 0 0-2.17-2.18zm0-.66a1.31 1.31 0 1 0-1.31-1.3 1.3 1.3 0 0 0 1.31 1.3zm-3.9.83a1.3 1.3 0 1 0 0-1.84 1.31 1.31 0 0 0 0 1.84zm-.25 3.31a1.3 1.3 0 1 0-1.3-1.3 1.31 1.31 0 0 0 1.3 1.3z"/><use xlink:href="#v"/><path d="M183.75 296.22a1.3 1.3 0 1 0-1.84 0 1.3 1.3 0 0 0 1.84 0zm-5.86 5.86a1.3 1.3 0 1 0-1.85 0 1.3 1.3 0 0 0 1.85 0zm2.01 1.6a1.31 1.31 0 1 0-1.31-1.31 1.3 1.3 0 0 0 1.31 1.31zm3.85-3.44a1.3 1.3 0 1 0 0 1.84 1.3 1.3 0 0 0 0-1.84z"/><circle cx="158.95" cy="351.51" r="1.3"/><path d="M161.88 346.4a2.18 2.18 0 1 0 2.18 2.18 2.17 2.17 0 0 0-2.18-2.18zm0 7.6a1.31 1.31 0 1 0 0-2.61 1.31 1.31 0 0 0 0 2.61zm3.86-3.42a1.33 1.33 0 0 0-1.85 0 1.31 1.31 0 1 0 1.85 0zm.26-3.31a1.31 1.31 0 1 0 0 2.61 1.31 1.31 0 0 0 0-2.61zm-4.12-1.53a1.31 1.31 0 1 0 0-2.61 1.31 1.31 0 0 0 0 2.61zm3.86.83a1.31 1.31 0 1 0-1.85 0 1.31 1.31 0 0 0 1.85 0z"/><circle cx="157.74" cy="348.58" r="1.3" transform="matrix(.004887 -.999988 .999988 .004887 -191.6 504.61)"/><circle cx="158.95" cy="345.65" r="1.3"/><use xlink:href="#w"/><path d="M183.75 328.56a1.3 1.3 0 1 0-1.84 0 1.31 1.31 0 0 0 1.84 0zm-7.75 0a1.33 1.33 0 0 0 1.85 0 1.31 1.31 0 1 0-1.85 0z"/><use xlink:href="#x"/><use xlink:href="#y"/><path d="M179.9 336a1.31 1.31 0 0 0 0-2.61 1.31 1.31 0 1 0 0 2.61zm-2.01-1.58a1.31 1.31 0 1 0-1.85 0 1.31 1.31 0 0 0 1.85 0zm5.86-1.85a1.3 1.3 0 1 0 0 1.85 1.3 1.3 0 0 0 0-1.85zm-8-.7a1.31 1.31 0 1 0 0-2.61 1.31 1.31 0 0 0 0 2.61zm-13.87 46.86a2.18 2.18 0 1 0 2.18 2.18 2.18 2.18 0 0 0-2.18-2.18zm3.86 4.19a1.3 1.3 0 1 0 0 1.84 1.31 1.31 0 0 0 0-1.84zm-3.86.83a1.31 1.31 0 1 0 1.31 1.3 1.3 1.3 0 0 0-1.31-1.3zm4.12-4.15a1.31 1.31 0 1 0 0 2.61 1.31 1.31 0 0 0 0-2.61z"/><path d="M161.88 378.07a1.31 1.31 0 1 0-1.3-1.3 1.31 1.31 0 0 0 1.3 1.3zm-3.88.83a1.3 1.3 0 1 0 0-1.84 1.31 1.31 0 0 0 0 1.84z"/><circle cx="158.95" cy="383.84" r="1.3"/><path d="M165.74 378.9a1.3 1.3 0 1 0-1.85 0 1.3 1.3 0 0 0 1.85 0z"/><circle cx="157.74" cy="380.91" r="1.3" transform="matrix(.004887 -.999988 .999988 .004887 -223.94 536.78)"/><path d="M183.75 364.9a1.305 1.305 0 1 0-1.84 1.85 1.305 1.305 0 0 0 1.84-1.85zm-3.85-4.84a1.31 1.31 0 1 0-1.31-1.31 1.31 1.31 0 0 0 1.31 1.31zm3.85.83a1.3 1.3 0 1 0-1.84 0 1.31 1.31 0 0 0 1.84 0zm.25.7a1.31 1.31 0 1 0 1.31 1.31 1.31 1.31 0 0 0-1.31-1.31z"/><use xlink:href="#z"/><path d="M175.75 364.2a1.31 1.31 0 1 0-1.3-1.3 1.31 1.31 0 0 0 1.3 1.3zm4.15 4.15a1.31 1.31 0 1 0-1.31-1.31 1.31 1.31 0 0 0 1.31 1.31zm-3.9-7.46a1.31 1.31 0 1 0 0-1.85 1.31 1.31 0 0 0 0 1.85zm1.89 5.86a1.31 1.31 0 0 0 0-1.85 1.33 1.33 0 0 0-1.85 0 1.31 1.31 0 1 0 1.85 1.85zm-16.01 44.32a2.18 2.18 0 1 0 2.18 2.17 2.17 2.17 0 0 0-2.18-2.17zm4.12.87a1.31 1.31 0 1 0 1.3 1.3 1.31 1.31 0 0 0-1.3-1.3zm-2.11 3.31a1.31 1.31 0 1 0 1.85 0 1.31 1.31 0 0 0-1.85 0zm-5.89-5.86a1.31 1.31 0 0 0 0 1.85 1.33 1.33 0 0 0 1.85 0 1.31 1.31 0 0 0-1.85-1.85zm5.89 0a1.31 1.31 0 0 0 0 1.85 1.33 1.33 0 0 0 1.85 0 1.31 1.31 0 0 0-1.85-1.85z"/><circle cx="158.95" cy="416.17" r="1.3"/><path d="M161.88 407.79a1.31 1.31 0 1 0 1.31 1.31 1.31 1.31 0 0 0-1.31-1.31z"/><circle cx="157.74" cy="413.24" r="1.3"/><path d="M161.88 416.08a1.31 1.31 0 1 0 1.31 1.31 1.31 1.31 0 0 0-1.31-1.31zm18.02-23.03a2.18 2.18 0 1 0 2.17 2.18 2.18 2.18 0 0 0-2.17-2.18zm0-.66a1.31 1.31 0 1 0-1.31-1.31 1.3 1.3 0 0 0 1.31 1.31zm-3.9.83a1.3 1.3 0 1 0 0-1.84 1.31 1.31 0 0 0 0 1.84zm8 .7a1.31 1.31 0 1 0 1.31 1.31 1.31 1.31 0 0 0-1.31-1.31zm-.25-.7a1.3 1.3 0 1 0-1.84 0 1.3 1.3 0 0 0 1.84 0zm-5.86 4.02a1.3 1.3 0 1 0 0 1.84 1.31 1.31 0 0 0 0-1.84zm2.01.83a1.31 1.31 0 1 0 1.3 1.3 1.31 1.31 0 0 0-1.3-1.3zm-4.15-1.54a1.31 1.31 0 1 0-1.3-1.3 1.31 1.31 0 0 0 1.3 1.3zm8 .71a1.3 1.3 0 1 0 0 1.84 1.3 1.3 0 0 0 0-1.84zm-1.84 26.47a1.3 1.3 0 1 0 1.84 0 1.31 1.31 0 0 0-1.84 0zm-6.16 2.55a1.3 1.3 0 0 0-.61 2.44h1.22a1.29 1.29 0 0 0-.61-2.44zm4.15-.87a2.17 2.17 0 0 0-2.18 2.17 2.14 2.14 0 0 0 .33 1.14h3.7a2.22 2.22 0 0 0 .32-1.14 2.17 2.17 0 0 0-2.17-2.17zm4.1.87a1.3 1.3 0 0 0-.61 2.44h1.22a1.29 1.29 0 0 0-.61-2.44zm-4.1-4.15a1.31 1.31 0 1 0 0 2.61 1.31 1.31 0 0 0 0-2.61zm-3.9 1.6a1.31 1.31 0 0 0 0 1.85 1.33 1.33 0 0 0 1.85 0 1.31 1.31 0 0 0-1.85-1.85zM135 255l-.87.73a1.3 1.3 0 0 0 .6-.32 1.22 1.22 0 0 0 .27-.41zm0 27.61a1.3 1.3 0 1 0 1.3 1.3 1.31 1.31 0 0 0-1.3-1.3zm-.26 3.31a1.3 1.3 0 1 0 0 1.84 1.31 1.31 0 0 0 0-1.84zm0-4.02a1.3 1.3 0 1 0-1.85 0 1.3 1.3 0 0 0 1.85 0zm-3.86-.83a1.31 1.31 0 1 0-1.3-1.3 1.31 1.31 0 0 0 1.3 1.3zm-.44 5.77l.42 2.52h0a1.31 1.31 0 1 0 0-2.61 1.33 1.33 0 0 0-.42.09zm-.74-4.76l.6 3.92a2.26 2.26 0 0 0 .58.09 2.18 2.18 0 1 0-1.18-4zm17.19-12.33a1.31 1.31 0 0 0 0-1.85 1.33 1.33 0 0 0-1.85 0 1.31 1.31 0 1 0 1.85 1.85zm2.01 1.6a1.31 1.31 0 1 0-1.31-1.31 1.31 1.31 0 0 0 1.31 1.31zm3.85-3.45a1.305 1.305 0 1 0-1.84 1.85 1.305 1.305 0 0 0 1.84-1.85zm-3.85.17a2.18 2.18 0 1 0-2.18-2.17 2.17 2.17 0 0 0 2.18 2.17zm-4.15-.87a1.31 1.31 0 1 0-1.3-1.3 1.31 1.31 0 0 0 1.3 1.3zm8.25-2.61a1.31 1.31 0 1 0 1.31 1.31 1.31 1.31 0 0 0-1.31-1.31zm-.25-.7a1.3 1.3 0 1 0-1.84 0 1.31 1.31 0 0 0 1.84 0zm-3.85-.83a1.31 1.31 0 1 0-1.31-1.31 1.31 1.31 0 0 0 1.31 1.31zm-2.01.83a1.31 1.31 0 1 0-1.85 0 1.31 1.31 0 0 0 1.85 0zm-2.14 35.64a1.3 1.3 0 1 0-1.3-1.3 1.31 1.31 0 0 0 1.3 1.3zm.25-3.31a1.3 1.3 0 1 0 0-1.84 1.31 1.31 0 0 0 0 1.84zm3.9-.83a1.31 1.31 0 1 0-1.31-1.3 1.3 1.3 0 0 0 1.31 1.3zm3.85.83a1.3 1.3 0 1 0-1.84 0 1.3 1.3 0 0 0 1.84 0zm-3.85 7.46a1.31 1.31 0 1 0-1.31-1.31 1.3 1.3 0 0 0 1.31 1.31zm3.85-3.44a1.3 1.3 0 1 0 0 1.84 1.3 1.3 0 0 0 0-1.84zm.25-3.31a1.3 1.3 0 1 0 1.31 1.3 1.3 1.3 0 0 0-1.31-1.3zm-6.11 5.15a1.3 1.3 0 1 0-1.85 0 1.3 1.3 0 0 0 1.85 0zm2.01-6.03a2.18 2.18 0 1 0 2.17 2.18 2.18 2.18 0 0 0-2.17-2.18zm3.85 36.52a1.3 1.3 0 1 0 0 1.85 1.3 1.3 0 0 0 0-1.85zm-3.85-4.18a2.18 2.18 0 1 0 2.17 2.17 2.17 2.17 0 0 0-2.17-2.17zm-2.01 6.03a1.31 1.31 0 1 0-1.85 0 1.31 1.31 0 0 0 1.85 0zm2.01 1.58a1.31 1.31 0 0 0 0-2.61 1.31 1.31 0 1 0 0 2.61zm4.1-6.74a1.31 1.31 0 0 0 0 2.61 1.31 1.31 0 1 0 0-2.61zm-4.1-1.54a1.31 1.31 0 0 0 0-2.61 1.31 1.31 0 1 0 0 2.61zm3.85.84a1.3 1.3 0 1 0-1.84 0 1.31 1.31 0 0 0 1.84 0zm-7.75 0a1.33 1.33 0 0 0 1.85 0 1.31 1.31 0 1 0-1.85 0zm-.25 3.31a1.31 1.31 0 1 0 0-2.61 1.31 1.31 0 0 0 0 2.61zm-9.67 51.75l-.37 1.16h0a1.28 1.28 0 0 0 .37-1.16zm.48-1.53a1.28 1.28 0 0 0 .77-1.18 1.25 1.25 0 0 0-.18-.63c-.15.6-.39 1.21-.59 1.81zm13.34-13.74a1.31 1.31 0 1 0-1.31-1.31 1.31 1.31 0 0 0 1.31 1.31zm0-7.63a2.18 2.18 0 1 0 2.17 2.18 2.17 2.17 0 0 0-2.17-2.18zm3.85 4.18a1.305 1.305 0 1 0-1.84 1.85 1.305 1.305 0 0 0 1.84-1.85zm.25-3.31a1.31 1.31 0 1 0 1.31 1.31 1.31 1.31 0 0 0-1.31-1.31zm-6.11 5.16a1.31 1.31 0 0 0 0-1.85 1.33 1.33 0 0 0-1.85 0 1.31 1.31 0 1 0 1.85 1.85zm5.86-5.86a1.3 1.3 0 1 0-1.84 0 1.31 1.31 0 0 0 1.84 0zm-7.75 0a1.31 1.31 0 1 0 0-1.85 1.31 1.31 0 0 0 0 1.85zm3.9-.83a1.31 1.31 0 1 0-1.31-1.31 1.31 1.31 0 0 0 1.31 1.31zm-4.15 4.14a1.31 1.31 0 1 0-1.3-1.3 1.31 1.31 0 0 0 1.3 1.3zm-13.87 51.88a1.31 1.31 0 1 0 1.31 1.31 1.31 1.31 0 0 0-1.31-1.31zm0-5.68a1.31 1.31 0 1 0-1.3-1.3 1.31 1.31 0 0 0 1.3 1.3z"/><circle cx="127.95" cy="416.17" r="1.3"/><path d="M128.88 411.24A1.31 1.31 0 0 0 128 409q-.31 1.26-.6 2.46a1.3 1.3 0 0 0 1.48-.22zm4.01-1.85a1.31 1.31 0 0 0 0 1.85 1.33 1.33 0 0 0 1.85 0 1.31 1.31 0 0 0-1.85-1.85zm-4.89 3.85a1.3 1.3 0 0 0-.79-1.2l-.59 2.49h.08a1.31 1.31 0 0 0 1.3-1.29zm7-1.3a1.31 1.31 0 1 0 1.3 1.3 1.31 1.31 0 0 0-1.3-1.3zm-2.11 3.31a1.31 1.31 0 1 0 1.85 0 1.31 1.31 0 0 0-1.85 0zm-2.01-4.18a2.18 2.18 0 1 0 2.18 2.17 2.17 2.17 0 0 0-2.18-2.17zm18.02-13a1.31 1.31 0 1 0 1.3 1.3 1.31 1.31 0 0 0-1.3-1.3zm3.85-.83a1.3 1.3 0 1 0 0 1.84 1.3 1.3 0 0 0 0-1.84zm.25-3.32a1.31 1.31 0 1 0 1.31 1.31 1.31 1.31 0 0 0-1.31-1.31zm-6.11 3.32a1.3 1.3 0 1 0 0 1.84 1.31 1.31 0 0 0 0-1.84zm2.01-4.19a2.18 2.18 0 1 0 2.17 2.18 2.18 2.18 0 0 0-2.17-2.18zm-4.15 3.48a1.31 1.31 0 1 0-1.3-1.3 1.31 1.31 0 0 0 1.3 1.3zm.25-3.31a1.3 1.3 0 1 0 0-1.84 1.31 1.31 0 0 0 0 1.84zm7.75 0a1.3 1.3 0 1 0-1.84 0 1.3 1.3 0 0 0 1.84 0zm-3.85-.83a1.31 1.31 0 1 0-1.31-1.31 1.3 1.3 0 0 0 1.31 1.31zm-3.9 31.32a1.31 1.31 0 0 0 0 1.85 1.33 1.33 0 0 0 1.85 0 1.31 1.31 0 0 0-1.85-1.85zm5.91 0a1.3 1.3 0 1 0 1.84 0 1.31 1.31 0 0 0-1.84 0zm-6.16 2.55a1.3 1.3 0 0 0-.61 2.44h1.22a1.29 1.29 0 0 0-.61-2.44zm4.15-.87a2.17 2.17 0 0 0-2.18 2.17 2.14 2.14 0 0 0 .33 1.14h3.7a2.22 2.22 0 0 0 .32-1.14 2.17 2.17 0 0 0-2.17-2.17zm0-3.28a1.31 1.31 0 1 0 0 2.61 1.31 1.31 0 0 0 0-2.61zm4.1 4.15a1.3 1.3 0 0 0-.61 2.44h1.22a1.29 1.29 0 0 0-.61-2.44z"/></g><use xlink:href="#N" class="B C H"/><use xlink:href="#AA" class="D"/><g clip-path="url(#B)" class="E"><path d="M220 285.92a1.3 1.3 0 0 0 0 1.84s.06 0 .08.06v-1.7-.25zm.2-3.92l.1-2.13a1.16 1.16 0 0 0-.27.18 1.3 1.3 0 0 0 0 1.84 1 1 0 0 0 .17.11z"/><path d="M219.74 285.21a1 1 0 0 0 .36-.07l.07-2.45a1.26 1.26 0 0 0-.43-.08 1.3 1.3 0 1 0 0 2.6zm.26 29.03a1.27 1.27 0 0 0 1.09.34l-.07-2.55a1.27 1.27 0 0 0-1 .36 1.31 1.31 0 0 0-.02 1.85zm1.18 3.67a1.29 1.29 0 1 0-.02 2.52l.02-2.52z"/><circle cx="219.74" cy="316.24" r="1.3"/><path d="M194.89 253.58a1.24 1.24 0 0 0-.24.37l.28 1.51a1.31 1.31 0 0 0 1.81-1.88 1.33 1.33 0 0 0-1.85 0zm.97-1.45a1.29 1.29 0 1 0 2.3-1.17l-2.3 1.17zm-1.39.87h0a1.24 1.24 0 0 0 .18-.22z"/><use xlink:href="#V"/><use xlink:href="#Y"/><use xlink:href="#Z"/><path d="M215 264.59a1.31 1.31 0 1 0 1.31 1.31 1.31 1.31 0 0 0-1.31-1.31zm-4.1-1.53a1.31 1.31 0 1 0-1.31-1.31 1.31 1.31 0 0 0 1.31 1.31zm3.85.83a1.3 1.3 0 1 0-1.84 0 1.31 1.31 0 0 0 1.84 0z"/><use xlink:href="#W"/><path d="M206.75 267.2a1.31 1.31 0 1 0-1.3-1.3 1.31 1.31 0 0 0 1.3 1.3z"/><use xlink:href="#X"/><path d="M214.75 300.24a1.3 1.3 0 1 0 0 1.84 1.3 1.3 0 0 0 0-1.84zm0-4.02a1.3 1.3 0 1 0-1.84 0 1.3 1.3 0 0 0 1.84 0zm-3.85-.17a2.18 2.18 0 1 0 2.17 2.18 2.18 2.18 0 0 0-2.17-2.18zm4.1.88a1.3 1.3 0 1 0 1.31 1.3 1.3 1.3 0 0 0-1.31-1.3zm-4.1 4.14a1.31 1.31 0 1 0 1.3 1.3 1.31 1.31 0 0 0-1.3-1.3z"/><use xlink:href="#d"/><path d="M208.89 300.24a1.3 1.3 0 1 0 0 1.84 1.31 1.31 0 0 0 0-1.84z"/><use xlink:href="#c"/><use xlink:href="#e"/><path d="M212.91 332.57a1.3 1.3 0 1 0 1.84 0 1.31 1.31 0 0 0-1.84 0zm0-5.86a1.3 1.3 0 1 0 1.84 0 1.31 1.31 0 0 0-1.84 0zm-2.01 1.68a2.18 2.18 0 1 0 2.17 2.17 2.17 2.17 0 0 0-2.17-2.17zm0 5.01a1.31 1.31 0 1 0 0 2.61 1.31 1.31 0 0 0 0-2.61zm4.1-4.14a1.31 1.31 0 0 0 0 2.61 1.31 1.31 0 1 0 0-2.61zm-4.1-4.15a1.31 1.31 0 1 0 0 2.61 1.31 1.31 0 0 0 0-2.61zm-3.9 1.6a1.31 1.31 0 0 0 0 1.85 1.33 1.33 0 0 0 1.85 0 1.31 1.31 0 0 0-1.85-1.85zm1.06 3.85a1.31 1.31 0 1 0-1.31 1.31 1.31 1.31 0 0 0 1.31-1.31zm-1.06 2.01a1.31 1.31 0 1 0 1.85 0 1.31 1.31 0 0 0-1.85 0z"/></g><g class="B C"><use xlink:href="#AA" class="F H"/><g class="E"><path d="M198.91 285.23l2.23 43.32c0 11.2 5.39 15.93 9.91 15.29s7.75-4.74 9.48-13.36-.43-33-.43-44.36c0-.95 0-1.95.06-3-10.34-4.82-17.47-1.12-21.25 2.11zm-49.67-67.6s-2.37-5.39-5.82-3.45-3 6.25 0 11.42 9.48 6.67 11 5.81-5.18-13.78-5.18-13.78zm49.85.16s1.81-5.59 5.44-4 3.62 5.92 1.14 11.36-8.77 7.59-10.35 6.89 3.77-14.25 3.77-14.25z"/><path d="M147.94 212.89s3.24 13.57 8.83 21.75 20.23 15.51 26.07 14.86 13.13-12.92 16.58-25 2.15-22.4 2.15-26.49-3.87-16.8-20-23.05-26.7-1.07-32.09 8-4.34 24.33-1.54 29.93z"/></g><g class="F H"><path d="M183.27 211.81a12.08 12.08 0 0 0-1.51 7.54c.64 4.09 2.58 6.46 1.08 7.11a5 5 0 0 1-3.45-.22m5.17 4.96s-3.23 3.66-9.05.43"/><path d="M162.16 215.69s3.66-5.39 8.83-1.94m14.65-.65s4.73-3.87 8.18 0" stroke-width="2"/><path d="M170.34 201.47s-6.24-3.23-10.77 4.31m23.91-5.38s6.89-3.88 11.63 4.73"/></g><path d="M222.9 185.75c-.22-6.24-9.91-2.58-13.79-5.81s-.64-9.7-15.29-16.59-29.29-5.6-42.21 1.51-19.17 15.94-18.53 26.49 9 14.65 9.91 17.23a61.76 61.76 0 0 0 3.66 7.54s2.59 1.51 3.23-.86-5.6-6.68.22-11.42 10.34-4.74 9.26-9.9-2.37-11.2 1.72-9.05 7.11 8.61 13.57 11.2 4.09-4.52 4.09-4.52 9.66 12.19 19.75 14.49c1.15 3 .47 8.34 1.68 9.55a1 1 0 0 0 .55.32 65.57 65.57 0 0 0 1.11-9.49c10.53.21 16.09-4.15 15-6s-3.87-1.73-3.87-1.73 10.15-6.71 9.94-12.96z" class="G"/></g><path d="M206.08 198.32a33.09 33.09 0 0 0 4.44-.11M171.32 179s12.2 14.83 28.81 18.56m2.48-17.94l3.79-.67m-30.61-5.5s8 6.38 21 6.53m-49.57 20.73a19.62 19.62 0 0 1-2.37 1.28m9.97-18.22s1.22 7.51-3.68 13.49" stroke="#fff" class="F H B"/><path d="M190.92 239.05s3.35 4.37 5.7 5.82 5.79 1.25 6.28 5.32-2.59 12.68-3.31 19.27 2.1 14.59 5.21 24.19 11.69 22.15 14.54 31.35-1.07 21.6-10.69 21-16.65-25.52-18.28-39.21-2.69-30-5.24-34.93-8.95-13-7.78-19.45 4.68-7.94 6.16-10.07 3.26-7.12 7.41-3.29z" class="B C E"/><use xlink:href="#AB" class="D"/><g clip-path="url(#C)" class="E"><path d="M163.89 314.24a1.29 1.29 0 0 0 1.44.26l-.55-2.49a1.31 1.31 0 0 0-.89 2.23zm-2.01 4.84a1.31 1.31 0 1 0 1.31 1.31 1.31 1.31 0 0 0-1.31-1.31zm2.01-.83a1.31 1.31 0 0 0 1.85 1.85 1.23 1.23 0 0 0 .34-.75c0-.24-.05-.47-.08-.71a1.66 1.66 0 0 0-.26-.39 1.31 1.31 0 0 0-1.85 0zm.83-2.01a1.28 1.28 0 0 0 1.12 1.27l-.39-2.42a1.29 1.29 0 0 0-.73 1.15zm-6.72 2.01a1.31 1.31 0 1 0 1.85 0 1.31 1.31 0 0 0-1.85 0zm3.88-4.85a1.31 1.31 0 1 0-1.3-1.3 1.31 1.31 0 0 0 1.3 1.3z"/><circle cx="157.74" cy="316.24" r="1.3" transform="matrix(.004887 -.999988 .999988 .004887 -159.27 472.43)"/><circle cx="158.95" cy="313.31" r="1.3"/><path d="M161.88 318.42a2.18 2.18 0 1 0-2.17-2.18 2.17 2.17 0 0 0 2.17 2.18zm-2.06 29.49a16.41 16.41 0 0 0 2.12-.41 2.66 2.66 0 0 0 1.18-.71 2.12 2.12 0 0 0-1.24-.39 2.17 2.17 0 0 0-2.06 1.51zm-2.08-.64a1.29 1.29 0 0 0-1.06.58 10.59 10.59 0 0 0 2.21.14 1.31 1.31 0 0 0-1.15-.72z"/><circle cx="158.95" cy="345.65" r="1.3"/><path d="M161.88 345.74a1.31 1.31 0 1 0 0-2.61 1.31 1.31 0 0 0 0 2.61zm1.76.45a8.26 8.26 0 0 0 1-1.81 1.26 1.26 0 0 0-.74.34 1.3 1.3 0 0 0-.26 1.47zM130.88 257a1.31 1.31 0 0 0 1.31-1.31 1.29 1.29 0 0 0-.71-1.14 15.42 15.42 0 0 0-1.85 1.42 1.29 1.29 0 0 0 1.25 1.03zm4.9-4.39l-.81.26h.03a1.23 1.23 0 0 0 .78-.26z"/><path d="M132.89 255.43a1.31 1.31 0 0 0 1.85-1.85 1.33 1.33 0 0 0-.74-.34 14.91 14.91 0 0 0-1.28.6 1.3 1.3 0 0 0 .17 1.59zm-2.01 31.32a1.31 1.31 0 1 0 1.31 1.3 1.3 1.3 0 0 0-1.31-1.3zm0-5.02a2.18 2.18 0 1 0 2.18 2.18 2.18 2.18 0 0 0-2.18-2.18zm4.12.88a1.3 1.3 0 1 0 1.3 1.3 1.31 1.31 0 0 0-1.3-1.3zm-2.11 3.31a1.3 1.3 0 1 0 1.85 0 1.3 1.3 0 0 0-1.85 0zm-4.01-5.86a1.3 1.3 0 1 0 0 1.84 1.31 1.31 0 0 0 0-1.84z"/><path d="M130.88 281.07a1.31 1.31 0 1 0-1.3-1.3 1.31 1.31 0 0 0 1.3 1.3zm-2 6.69a1.305 1.305 0 0 0-1.85-1.84l.64 2.15a1.29 1.29 0 0 0 1.21-.31zm5.86-5.86a1.3 1.3 0 1 0-1.85 0 1.3 1.3 0 0 0 1.85 0zm-6.74 2.01a1.3 1.3 0 0 0-1.3-1.3 1.25 1.25 0 0 0-.63.18l.69 2.41a1.29 1.29 0 0 0 1.24-1.29zm20.9-15.17a1.31 1.31 0 1 0 1.3 1.3 1.31 1.31 0 0 0-1.3-1.3zm-3.9-.84a1.31 1.31 0 1 0 1.85 0 1.33 1.33 0 0 0-1.85 0zm3.9-4.18a2.18 2.18 0 1 0 2.17 2.18 2.17 2.17 0 0 0-2.17-2.18zm-2.84 2.18a1.31 1.31 0 1 0-2.61 0 1.31 1.31 0 0 0 2.61 0zm.83-2.01a1.31 1.31 0 1 0-1.85 0 1.31 1.31 0 0 0 1.85 0zm2.01-.83a1.31 1.31 0 1 0-1.31-1.31 1.31 1.31 0 0 0 1.31 1.31zm2.01.83a1.34 1.34 0 0 0 .48.3l-.07-2.42a1.22 1.22 0 0 0-.41.27 1.31 1.31 0 0 0 0 1.85zm0 5.86a1.19 1.19 0 0 0 .65.33l-.07-2.49a1.27 1.27 0 0 0-.58 2.16zm2.09 27.18a1.3 1.3 0 1 0 1.31 1.3 1.3 1.3 0 0 0-1.31-1.3zm-.25-.71a1.3 1.3 0 1 0-1.84 0 1.3 1.3 0 0 0 1.84 0z"/><path d="M150.91 300.24a1.3 1.3 0 1 0 1.84 0 1.3 1.3 0 0 0-1.84 0zm-2.01-4.85a1.31 1.31 0 1 0-1.31-1.3 1.3 1.3 0 0 0 1.31 1.3zm0 .66a2.18 2.18 0 1 0 2.17 2.18 2.18 2.18 0 0 0-2.17-2.18zm-2.84 2.18a1.31 1.31 0 1 0-1.31 1.3 1.31 1.31 0 0 0 1.31-1.3zm-1.06 2.01a1.3 1.3 0 1 0 1.85 0 1.3 1.3 0 0 0-1.85 0zm1.89-4.02a1.3 1.3 0 1 0-1.85 0 1.3 1.3 0 0 0 1.85 0zm2.01 4.85a1.31 1.31 0 1 0 1.3 1.3 1.31 1.31 0 0 0-1.3-1.3zm0 27.32a2.18 2.18 0 1 0 2.17 2.17 2.17 2.17 0 0 0-2.17-2.17zm2.01 4.18a1.3 1.3 0 1 0 1.84 0 1.31 1.31 0 0 0-1.84 0zm1.84-4.01a1.3 1.3 0 1 0-1.84 0 1.31 1.31 0 0 0 1.84 0zm-3.85 4.84a1.31 1.31 0 1 0 0 2.61 1.31 1.31 0 0 0 0-2.61zm4.1-4.14a1.31 1.31 0 0 0 0 2.61 1.31 1.31 0 1 0 0-2.61zm-8 3.31a1.31 1.31 0 1 0 1.85 0 1.31 1.31 0 0 0-1.85 0zm3.9-4.85a1.31 1.31 0 0 0 0-2.61 1.31 1.31 0 1 0 0 2.61zm-2.84 2.84a1.31 1.31 0 1 0-1.31 1.31 1.31 1.31 0 0 0 1.31-1.31zm.83-2a1.31 1.31 0 1 0-1.85 0 1.33 1.33 0 0 0 1.85 0z"/></g><g class="B C"><use xlink:href="#AB" class="F H"/><g class="E"><path d="M163.88 309l-7.21-21.59c-12.94-3.7-21.53 3.76-26.1 9.75 6.62 19.65 15.87 42.33 18.24 45.22 3.87 4.74 7.32 6.68 13.13 5.17s6.06-26.97 1.94-38.55z"/><path d="M165.17 239.38s-2.8 4.74-4.95 6.46-5.6 1.94-5.6 6 4.09 12.28 5.6 18.74 1.72 14.86-.21 24.77-11 23.26-12.71 32.73 3.66 21.33 13.14 19.6 15.29-26.7 15.29-40.49-2.8-30.8-.86-36 7.32-14 5.38-20.25-5.6-7.32-7.32-9.26-4.09-6.61-7.76-2.3z"/></g><path d="M227.42 429.13s-3.18-23.55-8.32-40.18c-35.61 13.58-72.84 5.88-86.23 2.29l-.43 1.49c-5.6 19.38-8.83 36.4-8.83 36.4z" class="G"/></g><path d="M121.24,129.32l14,56.22s4.95,3.87,24.33-7.54,8.84-18.74,8.84-18.74Z" class="E"/><g clip-path="url(#D)" class="D"><path d="M147.71 146.13a156 156 0 0 1-16.06 25l3.36 13.5a177 177 0 0 0 22.05-32.58zm20.7 13.13l-1.24-.79c-3.88 7.06-8.51 14.88-13.9 23 1.91-.95 4-2.09 6.3-3.44 19.43-11.45 8.84-18.77 8.84-18.77zm-44.03-17.33l3.62 14.51a172.69 172.69 0 0 0 10.37-16.25l-9.39-6-4.6 7.74z"/></g><g class="B C"><path d="M121.24,129.32l14,56.22s4.95,3.87,24.33-7.54,8.84-18.74,8.84-18.74Z" class="H"/><path d="M121.24 129.32s-3.66 14.22-9.48 23.05-9.26 7.54-13.14 14.63-2.15 21.11-2.15 21.11l5.17-.65s-6-11 1.08-19.6 15.72-10.55 15.93-18.73 2.59-19.81 2.59-19.81z" class="G"/><path d="M121.24 129.32s0 8.4-11.42 16.37-22.18 7.11-25.63 18.95-4.3 15.94-4.3 15.94l4.73-1.07s0-12.71 7.11-19.39 17.23-8.18 20.89-11.41 8.62-19.39 8.62-19.39z" class="D"/><g class="E"><path d="M121.24 129.32s-.43 6.68-3.45 21.32-6.89 23.48-3.88 29.94a59.11 59.11 0 0 0 6 10.34l3.66-2.37s-9-5.38-6.9-20 4.57-39.23 4.57-39.23z"/><path d="M78.81 429.13h340.95" class="F"/></g></g></svg>